<?xml version="1.0" standalone="no"?>
<!DOCTYPE svg PUBLIC "-//W3C//DTD SVG 20010904//EN"
 "http://www.w3.org/TR/2001/REC-SVG-20010904/DTD/svg10.dtd">
<svg version="1.0" xmlns="http://www.w3.org/2000/svg"
 width="260.000000pt" height="260.000000pt" viewBox="0 0 260.000000 260.000000"
 preserveAspectRatio="xMidYMid meet">
<metadata>
Created by potrace 1.14, written by Peter Selinger 2001-2017
</metadata>
<g transform="translate(0.000000,260.000000) scale(0.100000,-0.100000)"
fill="#000000" stroke="none">
<path d="M1011 2559 c-196 -30 -391 -161 -509 -341 -115 -177 -142 -299 -142
-641 l0 -219 -29 -28 c-33 -33 -94 -195 -142 -379 -17 -64 -39 -145 -50 -180
-27 -91 -25 -151 6 -181 21 -20 37 -24 109 -26 84 -3 85 -3 110 27 15 17 26
38 26 47 0 9 12 -5 26 -32 50 -99 120 -181 202 -239 78 -55 122 -75 230 -104
89 -24 113 -27 287 -26 163 0 202 3 274 21 146 38 243 94 344 198 55 57 123
184 133 249 8 55 17 62 38 30 73 -112 196 -130 366 -55 47 20 109 45 137 54
84 28 110 78 67 127 -9 10 -12 27 -8 47 10 52 -12 90 -59 103 -54 14 -84 9
-200 -40 -55 -23 -103 -41 -107 -41 -5 0 -17 24 -28 53 -61 160 -131 277 -168
277 -9 0 -13 78 -17 308 -5 313 -9 352 -53 480 -27 80 -76 163 -158 265 -71
89 -249 199 -374 232 -78 20 -228 27 -311 14z m6 -360 c50 -24 99 -80 109
-122 6 -29 6 -28 29 22 54 117 211 162 352 101 52 -23 137 -100 169 -155 13
-23 34 -68 46 -101 22 -58 23 -70 26 -568 3 -496 2 -511 -18 -580 -49 -162
-148 -272 -313 -346 -77 -34 -166 -50 -286 -50 -206 0 -368 66 -486 199 -46
52 -63 80 -92 156 l-28 70 0 520 c0 567 0 564 60 685 25 49 113 138 163 164
78 40 192 42 269 5z"/>
<path d="M804 1835 c-14 -21 -15 -31 -5 -51 9 -21 17 -25 47 -22 43 4 59 31
40 69 -17 35 -60 37 -82 4z"/>
<path d="M1392 1848 c-7 -7 -12 -24 -12 -38 0 -34 17 -50 52 -50 20 0 32 7 40
25 22 48 -43 100 -80 63z"/>
</g>
</svg>
